<svg version="1.1" id="Layer_1" xmlns="http://www.w3.org/2000/svg" xmlns:xlink="http://www.w3.org/1999/xlink" x="0px" y="0px"
	 width="100%" viewBox="0 0 1024 1024" enable-background="new 0 0 1024 1024" xml:space="preserve">
<path fill="#000000" opacity="1.000000" stroke="none" 
	d="
M508.174072,857.634033 
	C506.816589,851.596924 505.578888,845.960571 504.020447,838.863770 
	C498.367126,850.880371 493.299835,861.641846 488.241180,872.407410 
	C485.266693,878.737488 482.019714,884.960144 479.437469,891.446960 
	C477.648102,895.941956 474.364716,895.386169 470.861084,895.265198 
	C467.336487,895.143555 466.206604,893.114319 465.510956,889.920532 
	C461.688110,872.368469 457.654541,854.862366 453.689758,837.341248 
	C453.477905,836.404968 453.543915,835.336548 452.153503,834.517578 
	C446.482880,846.784058 440.825134,858.993774 435.194763,871.216125 
	C432.895477,876.207458 430.689972,881.242126 428.377411,886.227173 
	C426.566040,890.131836 420.471313,891.714233 417.072083,889.270447 
	C415.045685,887.813599 416.345306,886.279358 416.982239,884.875854 
	C424.001770,869.406982 431.069824,853.960083 438.124359,838.507080 
	C440.752472,832.750183 443.723358,827.119080 445.900055,821.196228 
	C447.705627,816.283142 451.159088,816.599976 455.124268,816.789062 
	C458.922852,816.970154 460.607361,818.698792 461.414886,822.412231 
	C464.914215,838.504333 468.669586,854.541016 472.363129,870.590576 
	C472.803894,872.505798 473.435974,874.377075 474.308472,877.414185 
	C480.370453,864.435913 485.971497,852.439636 491.577087,840.445374 
	C493.974335,835.316162 496.400299,830.200317 498.774292,825.060364 
	C499.786530,822.868774 501.127502,821.380493 503.796600,822.308655 
	C506.956879,823.407471 511.811249,820.999878 512.976379,826.242615 
	C518.387207,850.588440 523.669189,874.962952 528.977783,899.331421 
	C529.041077,899.622314 528.844849,899.969788 528.767456,900.290344 
	C521.462463,902.572510 517.791687,900.625366 516.209656,893.569214 
	C513.554749,881.728088 510.930817,869.879944 508.174072,857.634033 
z"/>
<path fill="#000000" opacity="1.000000" stroke="none" 
	d="
M808.113770,401.985046 
	C830.895569,396.115326 853.314880,390.423065 875.734253,384.730804 
	C878.122009,384.124542 880.342407,383.689392 881.108826,387.058594 
	C883.763550,398.728668 887.746643,410.097351 889.368469,421.996704 
	C891.958008,440.995758 881.495911,457.672028 863.744385,463.191772 
	C844.914856,469.046753 826.877930,461.815613 818.332886,444.238586 
	C812.098450,431.414368 810.575562,417.108978 807.080811,403.429596 
	C806.993225,403.086700 807.514221,402.588348 808.113770,401.985046 
M858.442505,452.178619 
	C872.920593,447.709473 879.360168,438.728546 878.760315,423.607880 
	C878.467041,416.216980 875.497314,409.373047 874.119446,402.203979 
	C873.455750,398.750610 871.849304,397.896698 868.528320,398.770477 
	C857.590881,401.648071 846.596191,404.306946 835.640930,407.117920 
	C830.372986,408.469574 824.919495,409.232666 819.483398,411.785400 
	C821.119385,418.193298 822.592285,424.467285 824.330383,430.666962 
	C828.173828,444.375946 838.025391,456.015076 858.442505,452.178619 
z"/>
<path fill="#000000" opacity="1.000000" stroke="none" 
	d="
M190.510193,723.303589 
	C178.193619,696.251404 193.922180,673.590515 216.985016,668.452332 
	C231.561737,665.204773 243.603043,670.826477 253.028366,681.800537 
	C260.737946,690.776978 266.690887,701.083069 273.425232,710.798279 
	C274.955261,713.005554 274.303711,714.355835 272.309845,715.716187 
	C253.327866,728.667542 234.355988,741.633789 215.427505,754.663025 
	C213.221909,756.181274 211.833267,755.688049 210.523590,753.626892 
	C204.094543,743.509216 196.549957,734.130066 190.510193,723.303589 
M209.190857,684.663696 
	C199.653412,691.110352 195.637054,700.169373 197.638321,711.378601 
	C199.705734,722.958313 208.473099,730.806641 214.411957,740.896973 
	C229.258820,730.772034 243.396408,721.115234 257.556519,711.491638 
	C259.611847,710.094788 259.324371,708.628357 258.085022,706.873230 
	C254.149948,701.300598 250.599335,695.419373 246.294708,690.152222 
	C236.447861,678.103638 223.162933,676.122864 209.190857,684.663696 
z"/>
<path fill="#000000" opacity="1.000000" stroke="none" 
	d="
M300.507568,809.282959 
	C290.388000,789.733948 302.401581,766.823975 323.726562,764.325928 
	C334.483032,763.065857 347.568268,770.651123 352.211975,780.868958 
	C352.891113,782.363281 353.436615,783.918274 354.177734,785.781555 
	C356.765961,784.498596 357.480347,779.328918 362.031525,782.719360 
	C367.391083,786.711975 367.695343,786.382263 363.953705,792.200623 
	C351.436554,811.665649 338.800385,831.054993 326.425690,850.609924 
	C323.917389,854.573608 321.790894,853.071045 319.150177,851.282288 
	C316.655029,849.592163 313.772980,848.443420 316.565033,844.439026 
	C321.225311,837.755066 325.462708,830.776306 330.298370,823.269165 
	C317.525208,824.462769 307.761261,819.783752 300.507568,809.282959 
M340.121094,807.613342 
	C340.923859,806.554993 341.808044,805.548279 342.516205,804.430054 
	C347.472290,796.604858 346.867950,787.559937 341.020782,781.437805 
	C335.051453,775.187683 326.004395,773.635742 318.674652,777.604309 
	C310.848969,781.841431 306.378113,791.802795 308.312347,799.959412 
	C311.181763,812.059631 328.675049,819.782532 340.121094,807.613342 
z"/>
<path fill="#000000" opacity="1.000000" stroke="none" 
	d="
M844.257507,334.327515 
	C828.288818,344.327240 812.671814,354.207031 796.935913,363.893646 
	C794.564087,365.353638 792.129700,369.475952 788.721252,364.677979 
	C786.089600,360.973358 784.387695,357.792664 789.996399,355.260681 
	C771.283691,343.733948 765.185486,331.180634 770.869629,316.385498 
	C776.042358,302.921692 791.236023,294.739319 805.706360,297.624634 
	C819.234619,300.322083 828.497620,313.565735 828.242249,330.716675 
	C834.885254,326.558533 841.131287,322.601929 847.425415,318.723328 
	C852.942932,315.323242 852.992615,315.500458 856.530212,321.096771 
	C858.355103,323.983795 858.217896,325.766174 855.137878,327.499603 
	C851.515991,329.538025 848.084595,331.914734 844.257507,334.327515 
M789.897156,311.306671 
	C782.257751,315.967499 778.641357,322.780396 780.508789,331.553528 
	C782.157166,339.297760 787.125977,344.624634 795.211792,346.049957 
	C803.893799,347.580292 810.382690,343.385651 815.431702,336.902039 
	C820.414612,330.503235 819.622925,321.746796 813.962524,314.800140 
	C808.180786,307.704590 800.167358,306.388977 789.897156,311.306671 
z"/>
<path fill="#000000" opacity="1.000000" stroke="none" 
	d="
M716.060669,261.052917 
	C715.637268,262.318146 715.184692,263.203430 714.759033,264.101410 
	C712.768250,268.300629 710.444763,268.992310 706.313049,266.086548 
	C694.196289,257.565063 681.844482,249.370865 669.441345,241.267990 
	C665.963013,238.995636 665.703857,237.142288 668.028137,233.733963 
	C680.313660,215.717850 692.446594,197.596191 704.455872,179.394592 
	C706.754578,175.910568 708.648743,175.658875 712.020691,177.984650 
	C724.078430,186.301193 736.259644,194.443573 748.528076,202.446518 
	C751.652893,204.484955 752.027283,206.162354 749.884827,209.207336 
	C747.776428,212.204132 746.183105,213.870102 742.403687,211.212341 
	C732.484680,204.237152 722.316467,197.616287 711.614014,190.428772 
	C707.935730,196.001709 704.425964,201.173660 701.080933,206.450027 
	C699.465088,208.998840 701.784790,209.977036 703.378235,211.064529 
	C711.076843,216.318710 718.668335,221.748291 726.572510,226.675018 
	C730.634888,229.207123 729.248840,231.338943 727.488953,234.344711 
	C725.574402,237.614395 723.747375,237.237549 721.080322,235.388535 
	C714.105652,230.553009 707.012573,225.887680 699.943970,221.188660 
	C698.030212,219.916397 696.035706,218.765518 693.616211,217.274094 
	C689.414490,223.605820 685.413147,229.635666 681.056580,236.200714 
	C686.561951,239.919327 691.667419,243.272598 696.671143,246.771255 
	C703.185669,251.326248 710.300049,255.050354 716.060669,261.052917 
z"/>
<path fill="#000000" opacity="1.000000" stroke="none" 
	d="
M181.645584,359.470886 
	C178.229782,339.838318 196.661392,322.176788 215.724792,326.755890 
	C227.229202,329.519348 236.167572,335.811096 239.344238,347.928436 
	C242.306015,359.226044 238.952576,368.969818 230.731918,377.010040 
	C228.530914,379.162720 225.688217,380.659332 222.403137,382.977051 
	C229.102646,386.341370 235.192062,389.661469 241.507080,392.475189 
	C245.487961,394.248932 246.203888,396.119965 244.155731,400.089783 
	C242.145538,403.985962 240.500137,405.071930 236.204285,402.866577 
	C216.366180,392.682251 196.335083,382.874237 176.391190,372.895294 
	C171.539688,370.467834 171.119690,364.810974 175.451401,361.641266 
	C177.600754,360.068481 179.094238,362.742950 181.553085,362.220276 
	C182.388306,361.841431 181.528458,360.708832 181.645584,359.470886 
M200.396942,339.725891 
	C195.970612,342.016449 193.526749,345.866150 192.006836,350.429901 
	C189.211365,358.823822 192.756104,367.690155 200.687836,372.178162 
	C209.107208,376.942139 219.179443,375.646484 224.870621,369.067383 
	C230.678558,362.353333 231.062271,352.507568 225.785812,345.583954 
	C220.305664,338.393066 210.509552,335.937561 200.396942,339.725891 
z"/>
<path fill="#000000" opacity="1.000000" stroke="none" 
	d="
M744.858276,790.323792 
	C730.583252,791.626953 715.341248,779.033386 713.760986,763.772705 
	C712.014343,746.905212 722.605896,734.337036 740.840271,731.242126 
	C739.827026,727.830688 736.906799,726.008240 734.823242,723.613403 
	C731.875977,720.225891 728.794312,716.952698 725.704712,713.692505 
	C722.142883,709.934082 726.279785,708.577209 727.962891,706.591919 
	C729.630798,704.624512 731.459106,702.944519 734.081116,705.762512 
	C750.285950,723.179016 766.541382,740.548584 782.840271,757.877075 
	C784.793030,759.953186 784.775635,761.692078 782.539795,763.232361 
	C780.383545,764.717773 779.193726,769.007446 775.305847,766.006592 
	C774.545044,765.419312 773.837952,764.762390 772.702271,763.792908 
	C769.476440,779.141724 760.732239,788.282288 744.858276,790.323792 
M762.622620,763.862549 
	C763.690735,754.537109 759.817688,747.681946 751.847107,743.162537 
	C739.975891,736.431274 725.154846,745.028809 724.937500,758.642395 
	C724.783630,768.281067 731.974426,777.297363 740.954529,778.725647 
	C751.144287,780.346313 758.832886,775.332764 762.622620,763.862549 
z"/>
<path fill="#000000" opacity="1.000000" stroke="none" 
	d="
M808.785889,638.976929 
	C802.885132,637.138184 803.331482,631.899963 803.164673,627.873169 
	C802.621033,614.750061 810.828735,595.805420 829.459595,593.524841 
	C840.704102,592.148376 853.857178,598.372437 859.599915,608.340942 
	C865.673462,618.883667 864.262268,631.936584 855.921448,642.364380 
	C849.334106,650.599976 836.679810,653.761719 825.355957,650.239624 
	C821.719788,649.108765 820.648010,647.561890 822.077271,643.729919 
	C826.205200,632.663025 829.965454,621.458862 833.856995,610.304016 
	C834.445618,608.616516 835.295593,606.957947 834.801758,604.658264 
	C829.451111,603.871887 824.792236,605.444885 821.032043,608.917358 
	C814.729553,614.737671 811.751099,622.265808 814.070129,630.564148 
	C815.595276,636.021362 813.784363,637.862427 808.785889,638.976929 
M852.330200,617.317078 
	C850.748962,613.393188 848.661072,609.943176 843.738770,608.244507 
	C839.757568,618.907104 835.894043,629.353760 832.889038,640.176697 
	C845.993713,642.862610 855.246033,632.044189 852.330200,617.317078 
z"/>
<path fill="#000000" opacity="1.000000" stroke="none" 
	d="
M685.888916,828.589661 
	C677.826538,826.525879 672.290955,821.758850 667.817017,815.452026 
	C665.715942,812.490112 666.048279,810.617493 669.291382,808.680298 
	C679.142029,802.796509 688.847473,796.669067 698.587463,790.601196 
	C700.248535,789.566467 702.191162,788.849426 703.223083,787.012878 
	C699.945435,781.573975 692.572388,779.292847 685.206482,781.702942 
	C678.448059,783.914185 672.843750,787.801453 670.545837,794.852966 
	C669.263672,798.787354 667.301392,798.470947 664.136536,797.510803 
	C660.439880,796.389404 659.855286,794.303772 661.086365,791.128723 
	C665.523865,779.683777 674.468628,773.472778 685.919739,770.913513 
	C697.998352,768.213928 708.936584,773.023071 715.672607,783.378723 
	C722.391968,793.708801 723.669678,804.398132 716.792969,815.222656 
	C710.270813,825.489014 698.146790,830.776001 685.888916,828.589661 
M701.962952,798.546326 
	C694.649719,803.280762 686.802917,807.216614 679.916016,812.676636 
	C685.491150,819.486084 694.331177,820.857178 701.662720,816.387939 
	C709.682556,811.499084 712.423767,803.299011 708.684326,795.159424 
	C706.267273,795.366882 704.578613,797.101868 701.962952,798.546326 
z"/>
<path fill="#000000" opacity="1.000000" stroke="none" 
	d="
M263.547394,309.421661 
	C265.831604,305.780914 267.082733,302.177185 266.871979,298.233795 
	C266.651154,294.101898 269.211884,293.815582 272.341675,293.687561 
	C275.855164,293.543884 277.232697,295.284882 277.194031,298.470123 
	C277.082458,307.665497 272.945801,315.151459 266.783630,321.560364 
	C258.230560,330.455963 245.691284,332.935364 234.631744,328.246063 
	C223.096481,323.355042 215.142212,311.959351 215.765320,300.142517 
	C216.398880,288.127441 222.745773,279.431946 233.412384,274.251953 
	C243.811172,269.202057 253.475906,271.977997 262.521820,278.251831 
	C265.295990,280.175842 265.629486,282.003296 263.414215,284.780853 
	C255.524948,294.672760 247.827255,304.717560 240.070633,314.714996 
	C239.575912,315.352661 239.197159,316.080292 238.779755,316.741852 
	C245.625046,322.639435 255.333588,319.807098 263.547394,309.421661 
M226.288528,297.921295 
	C226.036224,303.008728 226.540833,307.810455 231.402603,311.529999 
	C238.537842,302.559387 245.745285,294.017029 252.136368,284.683319 
	C240.595657,278.977753 230.155930,284.264282 226.288528,297.921295 
z"/>
<path fill="#000000" opacity="1.000000" stroke="none" 
	d="
M361.189026,836.387756 
	C358.869019,829.522522 359.876343,823.204102 362.009186,816.929016 
	C363.055695,813.850037 364.619446,812.794067 368.002930,814.189697 
	C379.080933,818.759338 390.264282,823.075867 401.444977,827.391663 
	C403.015930,827.998047 404.840118,829.614746 406.475830,827.790100 
	C407.796783,826.316650 407.360596,824.387329 406.976959,822.535950 
	C404.675293,811.428711 391.945862,803.617432 380.312927,806.914612 
	C375.555603,808.263062 375.004852,805.779358 373.868652,802.653076 
	C372.518646,798.938599 374.789154,798.006897 377.552948,797.100464 
	C392.729797,792.123596 413.127991,802.972473 417.187500,818.221863 
	C421.580780,834.725098 411.424347,852.110352 395.249390,855.774658 
	C381.208008,858.955688 367.125000,851.061707 361.189026,836.387756 
M385.326447,846.195007 
	C393.877869,847.199036 400.232971,843.990051 402.756653,837.192017 
	C393.835724,833.657288 384.917694,830.091919 375.967346,826.609619 
	C374.516174,826.044983 372.902985,824.645752 371.366089,826.175171 
	C369.924713,827.609680 370.193298,829.580017 370.601654,831.375366 
	C372.338348,839.010315 376.808105,844.075989 385.326447,846.195007 
z"/>
<path fill="#000000" opacity="1.000000" stroke="none" 
	d="
M189.038956,608.627808 
	C191.600616,609.221191 191.686096,611.324158 192.333527,612.932617 
	C196.678894,623.727783 200.947845,634.553711 205.236282,645.371765 
	C205.838257,646.890198 206.258743,648.524048 207.772507,649.398621 
	C214.743362,645.558777 217.556061,637.647095 215.099442,629.117249 
	C213.479034,623.490845 210.627838,618.611938 205.465286,615.662109 
	C201.434647,613.359009 203.149628,611.028381 204.582825,608.252258 
	C206.247498,605.027893 208.291748,605.799622 210.739975,607.111084 
	C224.913422,614.703552 231.005203,637.171387 222.531693,650.771423 
	C213.328445,665.542725 192.645508,669.682556 178.973373,659.075317 
	C170.162979,652.239990 166.408859,642.624023 167.952103,631.688049 
	C169.645432,619.688416 177.080322,612.099060 189.038956,608.627808 
M190.875229,632.507690 
	C189.365494,628.913086 188.663223,624.932373 186.092560,621.810608 
	C177.621857,626.998718 175.253906,635.810486 179.689835,644.837036 
	C183.248993,652.079468 191.409760,655.579468 198.754410,652.558289 
	C196.234222,646.126953 193.705582,639.674011 190.875229,632.507690 
z"/>
<path fill="#000000" opacity="1.000000" stroke="none" 
	d="
M143.762360,514.261841 
	C146.930557,497.550110 157.005524,488.072357 171.194427,487.638611 
	C175.470108,487.507935 177.193436,488.873444 177.155457,493.276764 
	C177.057755,504.599915 177.263168,515.926208 177.407120,527.250427 
	C177.431915,529.200684 177.038544,531.260193 178.490540,533.408081 
	C185.261292,532.008606 189.490448,527.710876 191.492233,521.307739 
	C193.862015,513.727539 193.062958,506.339050 187.906677,500.078613 
	C184.557419,496.012146 188.458710,495.039825 190.229294,493.091400 
	C192.507233,490.584717 194.166367,491.927338 195.918365,493.952972 
	C205.428268,504.948547 204.830139,525.986511 194.630295,536.860107 
	C185.068405,547.053589 166.417816,548.298584 154.723312,539.272461 
	C146.753647,533.121216 143.643143,524.578247 143.762360,514.261841 
M168.721970,513.511230 
	C168.691940,510.180695 168.538055,506.845490 168.662262,503.520721 
	C168.828995,499.057098 166.776688,498.721222 163.439453,500.474121 
	C157.502838,503.592316 154.233994,508.357788 153.990891,515.209167 
	C153.733185,522.472717 155.999664,528.316589 162.691650,531.841370 
	C164.366684,532.723572 166.073380,534.131104 168.733032,532.618042 
	C168.733032,526.743469 168.733032,520.625610 168.721970,513.511230 
z"/>
<path fill="#000000" opacity="1.000000" stroke="none" 
	d="
M849.005493,523.793457 
	C848.481934,510.911957 849.489746,498.431946 847.708984,485.571289 
	C841.323181,486.417053 837.613403,489.976532 835.420959,495.030701 
	C831.832642,503.302826 832.502625,511.450317 838.206238,518.537903 
	C841.153809,522.200745 838.282410,523.380127 836.469971,525.320190 
	C834.493530,527.435791 832.722778,527.517761 830.585388,525.334961 
	C823.289429,517.883789 821.133545,501.271973 826.143250,489.977844 
	C831.261841,478.437927 841.453735,472.952606 856.444946,473.669159 
	C867.083618,474.177643 876.984009,481.922333 880.546143,492.522522 
	C887.075745,511.953400 874.480408,530.045898 853.828918,531.018555 
	C848.481445,531.270386 849.164185,527.547729 849.005493,523.793457 
M857.283997,505.487213 
	C857.606689,510.020142 856.694153,514.644897 857.951111,519.127075 
	C866.094421,518.078003 871.173462,512.862488 871.885559,505.126709 
	C872.775452,495.460266 868.792297,488.321289 861.315674,485.876556 
	C858.160400,484.844849 856.957153,485.946472 857.023010,489.069794 
	C857.131287,494.209778 857.193848,499.350739 857.283997,505.487213 
z"/>
<path fill="#000000" opacity="1.000000" stroke="none" 
	d="
M418.573669,180.791534 
	C410.463654,185.692413 401.473236,187.754318 393.096619,191.339981 
	C390.374237,192.505310 387.344971,193.002274 384.524323,195.221329 
	C387.262451,202.619522 390.084747,210.052322 392.733704,217.546402 
	C393.347595,219.283020 395.222168,221.440460 393.200104,223.023193 
	C390.736633,224.951401 387.654236,226.070587 384.448914,226.154327 
	C383.133942,226.188660 382.850891,224.643753 382.448700,223.558762 
	C374.463989,202.017380 366.505890,180.466034 358.464325,158.945908 
	C357.525391,156.433228 358.375488,155.279358 360.665192,154.432587 
	C375.341980,149.004868 390.005890,143.542130 404.655975,138.042709 
	C408.707001,136.522018 408.953064,139.783600 409.973267,142.098007 
	C411.051178,144.543304 411.790375,146.747589 408.223541,148.020676 
	C397.878265,151.713135 387.650818,155.743393 377.255920,159.285385 
	C373.184082,160.672852 371.932465,162.332291 373.867004,166.468719 
	C375.834625,170.676010 377.392670,175.114502 378.705750,179.576630 
	C379.914368,183.683853 381.699554,184.796249 385.891388,183.026657 
	C393.244904,179.922363 400.828217,177.360535 408.325226,174.598465 
	C416.410767,171.619553 416.415741,171.633087 418.573669,180.791534 
z"/>
<path fill="#000000" opacity="1.000000" stroke="none" 
	d="
M776.487732,732.733154 
	C764.061279,724.546692 758.764771,713.770508 761.123413,701.926331 
	C763.708923,688.942993 773.524780,678.881104 786.699890,676.447266 
	C797.886658,674.380737 807.093201,678.974121 814.186340,687.122742 
	C821.691895,695.744934 822.769165,706.067505 818.604065,716.597778 
	C811.629639,734.230774 793.913452,741.020996 776.487732,732.733154 
M798.176331,724.006165 
	C807.292236,719.766724 811.966431,710.832336 809.598083,702.174194 
	C807.273438,693.675476 798.285461,687.068176 789.315552,687.263794 
	C780.977966,687.445557 773.911316,693.571289 771.806946,702.441101 
	C770.000427,710.055481 774.640930,718.523132 782.853760,722.852173 
	C787.546753,725.325867 792.400452,725.441467 798.176331,724.006165 
z"/>
<path fill="#000000" opacity="1.000000" stroke="none" 
	d="
M165.750336,446.340668 
	C147.233902,430.770081 155.310944,403.824554 171.133041,395.790436 
	C183.094345,389.716736 198.838654,392.740967 207.607300,402.882233 
	C216.499588,413.166565 216.783859,429.763336 208.265701,441.327118 
	C200.146988,452.348633 186.022659,456.051575 172.988846,450.447510 
	C170.563751,449.404785 168.351349,447.867371 165.750336,446.340668 
M171.876740,408.332397 
	C164.591461,416.081787 163.278839,425.225403 168.369629,432.762634 
	C173.330338,440.107269 183.895050,443.502045 192.237335,440.432159 
	C200.442184,437.412811 205.873947,427.836548 204.005371,419.685028 
	C200.799942,405.701569 185.002625,399.797211 171.876740,408.332397 
z"/>
<path fill="#000000" opacity="1.000000" stroke="none" 
	d="
M475.820435,184.896011 
	C467.568573,165.122498 476.516541,146.188126 495.716431,142.100006 
	C511.366241,138.767761 526.476501,146.879715 530.984985,161.033936 
	C535.840271,176.276993 529.280212,191.873840 515.378662,197.800705 
	C502.495026,203.293610 484.100342,200.554550 475.820435,184.896011 
M517.565063,159.044998 
	C510.467163,150.764511 500.504791,149.161484 491.729706,154.887894 
	C484.412811,159.662720 481.878876,170.930237 486.079712,180.011292 
	C489.528748,187.467178 496.079071,190.826721 505.428558,189.934982 
	C512.655762,189.245667 518.871277,183.911118 520.364685,176.561768 
	C521.547546,170.740463 521.120239,164.968964 517.565063,159.044998 
z"/>
<path fill="#000000" opacity="1.000000" stroke="none" 
	d="
M769.507996,248.243607 
	C780.618042,253.716843 787.890747,261.364075 787.374695,274.332764 
	C787.124512,280.619446 783.769348,285.337311 779.642273,289.532379 
	C772.637451,296.652435 765.264038,303.412964 758.338562,310.606720 
	C755.024475,314.049133 753.297852,311.818268 751.135376,309.571777 
	C749.040405,307.395416 746.455566,305.641266 750.031677,302.351715 
	C756.891663,296.041443 763.638855,289.592285 770.158569,282.932312 
	C779.104248,273.794159 777.186890,263.084167 765.797241,257.177765 
	C759.647766,253.988815 753.344971,254.944794 747.461609,260.365723 
	C740.851135,266.456665 734.321655,272.648285 728.016846,279.052002 
	C725.337402,281.773407 723.537048,281.729919 721.207703,278.848083 
	C719.160400,276.315399 716.025330,274.586945 720.036316,270.803955 
	C731.420532,260.066742 742.490295,248.996124 753.684937,238.057831 
	C755.787109,236.003799 757.680359,233.004059 760.991211,236.472870 
	C763.658081,239.266983 767.585449,241.864700 761.356567,245.967880 
	C764.518860,246.828217 766.838928,247.459427 769.507996,248.243607 
z"/>
<path fill="#000000" opacity="1.000000" stroke="none" 
	d="
M559.416870,147.986832 
	C559.750732,151.698776 561.780579,149.768555 562.937439,149.234863 
	C571.290405,145.381561 579.493286,146.359741 587.537354,149.982605 
	C596.995239,154.242188 600.840210,162.396652 599.145264,175.553375 
	C597.872131,185.435867 595.789551,195.211517 594.313354,205.071564 
	C593.642883,209.549591 590.777710,208.610245 588.007324,208.165283 
	C584.936462,207.672028 582.007019,207.105103 582.863647,202.683411 
	C584.377991,194.866348 585.693604,187.010605 587.068787,179.166901 
	C587.354980,177.534775 587.632629,175.891586 587.753845,174.241699 
	C588.503662,164.037170 585.083801,158.926529 576.518982,157.358841 
	C566.320862,155.492188 558.846802,159.524277 556.532837,169.085754 
	C554.310425,178.268875 552.890015,187.655014 551.352722,196.990738 
	C550.716553,200.854218 548.852539,201.353165 545.410583,200.617889 
	C542.113037,199.913467 539.065369,199.758636 539.938477,195.002151 
	C542.875061,179.003922 545.671509,162.979950 548.513977,146.964462 
	C548.859741,145.016098 548.959412,142.203415 551.716370,143.117859 
	C554.475342,144.032928 559.566467,141.706680 559.416870,147.986832 
z"/>
<path fill="#000000" opacity="1.000000" stroke="none" 
	d="
M873.526245,586.940063 
	C874.200317,590.604187 873.669189,593.752380 872.241882,596.559692 
	C870.589600,597.061707 869.656250,596.238342 868.709534,595.632446 
	C853.435303,585.857239 838.207642,576.008728 822.880676,566.317200 
	C820.212708,564.630188 819.158203,562.602844 819.945129,559.679443 
	C820.756226,556.666443 820.251099,553.129211 824.773682,551.988647 
	C842.014160,547.640808 859.170532,542.959473 876.360168,538.409485 
	C877.940613,537.991150 879.532349,537.419495 881.112915,538.217468 
	C882.060120,547.045288 881.179260,548.435730 873.132690,550.551208 
	C860.472168,553.879639 847.798340,557.156982 833.842773,560.791260 
	C847.644653,569.825989 860.471008,578.222168 873.526245,586.940063 
z"/>
<path fill="#000000" opacity="1.000000" stroke="none" 
	d="
M194.619247,587.661255 
	C182.851669,595.866394 171.380188,603.866455 159.891205,611.841248 
	C159.512787,612.103943 158.956512,612.110352 158.504684,612.230530 
	C154.119568,605.972656 154.787354,602.031616 160.852066,597.875183 
	C171.820572,590.357971 182.779144,582.826355 194.342896,574.888184 
	C188.452972,572.147278 182.659409,571.725220 177.150894,570.352112 
	C170.057892,568.584045 162.908005,567.039307 155.766037,565.473938 
	C146.986084,563.549622 146.789215,563.357605 146.251328,554.099365 
	C147.636688,553.103516 149.153168,553.560974 150.575409,553.871277 
	C167.968735,557.665161 185.309219,561.719849 202.764450,565.200317 
	C208.096176,566.263489 207.682037,570.124390 208.816574,573.605835 
	C209.926926,577.013000 207.833099,578.424438 205.535828,579.980347 
	C201.951889,582.407654 198.449554,584.955505 194.619247,587.661255 
z"/>
<path fill="#000000" opacity="1.000000" stroke="none" 
	d="
M648.801270,175.599915 
	C645.989929,177.849182 643.842712,175.567078 641.544312,175.078232 
	C638.825439,174.499969 636.408936,172.744278 632.719238,172.791534 
	C629.306641,182.647583 625.466309,192.553131 622.523315,202.718445 
	C620.955872,208.132614 624.645020,211.461288 631.324951,212.003601 
	C633.551392,212.184357 636.000793,211.485779 636.698059,214.932114 
	C637.683838,219.804352 636.308960,221.981049 631.238525,221.773468 
	C619.281860,221.283951 605.944458,213.683014 612.278259,196.107941 
	C615.101135,188.274979 617.771057,180.384247 620.747986,172.610748 
	C621.968445,169.424088 621.488525,167.517944 618.073181,166.635056 
	C614.531006,165.719376 613.250854,163.971405 614.627991,160.074417 
	C615.979797,156.248947 617.998779,156.066544 621.044861,157.561951 
	C625.900757,159.945847 626.839172,156.279144 627.575378,153.043655 
	C628.590576,148.582550 630.547546,147.627319 634.967957,149.230621 
	C639.025757,150.702377 640.472412,152.396347 638.512390,156.454910 
	C637.656128,158.228027 637.214600,160.201431 636.552917,162.179077 
	C639.019531,164.660233 642.284546,165.009476 645.168091,166.114349 
	C651.722900,168.625916 651.740845,168.579102 648.801270,175.599915 
z"/>
<path fill="#000000" opacity="1.000000" stroke="none" 
	d="
M794.596069,648.151550 
	C816.248535,659.237305 837.528442,670.208740 858.844543,681.109436 
	C861.883728,682.663696 864.425049,683.739868 861.952332,688.100159 
	C859.737244,692.006165 858.222473,693.934387 853.320862,691.333496 
	C833.057312,680.580994 812.550903,670.286926 792.178162,659.738403 
	C790.451599,658.844482 787.134155,658.321960 788.314392,655.542175 
	C789.531860,652.674683 789.589050,648.366699 794.596069,648.151550 
z"/>
<path fill="#000000" opacity="1.000000" stroke="none" 
	d="
M174.054688,463.879578 
	C183.090622,464.929535 191.659409,466.130188 200.267334,466.882965 
	C205.503494,467.340851 204.593185,470.585754 204.346024,473.969513 
	C204.098587,477.357178 203.180557,479.020020 199.151093,478.516632 
	C175.584747,475.572632 151.989258,472.860046 128.395813,470.136841 
	C124.921532,469.735809 123.141098,468.399139 124.116310,464.631012 
	C124.569069,462.881561 124.767143,461.066223 125.246002,458.339233 
	C141.408127,460.178162 157.506088,462.009796 174.054688,463.879578 
z"/>
<path fill="#000000" opacity="1.000000" stroke="none" 
	d="
M281.707001,235.068024 
	C281.705994,235.568787 281.683228,235.751633 281.586151,235.876938 
	C271.547058,248.834091 271.847046,253.714844 283.325623,265.792511 
	C288.019928,270.731781 292.498352,275.883606 297.327515,280.684784 
	C300.784454,284.121643 297.992157,285.794037 295.876312,287.874481 
	C293.770996,289.944519 292.010162,291.948364 289.000397,288.650909 
	C277.796356,276.375916 266.402740,264.273865 255.066101,252.120132 
	C253.588364,250.535904 252.217728,248.755341 254.682541,247.196716 
	C257.025330,245.715256 258.257538,241.205475 262.381989,243.927979 
	C263.197296,244.466187 263.899200,245.176224 265.134369,246.209274 
	C265.966278,241.068924 267.398407,236.578461 270.198151,232.656281 
	C274.012878,227.312134 275.098694,227.223099 279.503418,231.998993 
	C280.284943,232.846390 280.938110,233.812149 281.707001,235.068024 
z"/>
<path fill="#000000" opacity="1.000000" stroke="none" 
	d="
M661.061829,831.037964 
	C662.632996,834.762695 663.967712,838.177124 665.506836,841.496826 
	C666.706482,844.084290 667.268250,846.345581 663.714417,847.307129 
	C660.931885,848.059998 657.773865,851.950684 655.545044,846.513489 
	C655.307434,845.933777 654.802429,845.463623 654.088135,844.486877 
	C651.130493,849.748413 647.539246,853.978088 642.310242,856.542542 
	C640.219055,857.568115 638.000305,858.610291 637.114624,855.491150 
	C636.342712,852.772949 632.279602,849.935913 637.161133,847.012329 
	C647.878235,840.593933 649.919373,834.370728 645.240295,822.828369 
	C642.239075,815.424805 639.304382,807.983093 635.956177,800.735718 
	C634.098999,796.715759 636.431763,795.808044 639.268494,794.713562 
	C642.001343,793.659241 644.635376,791.535583 646.488464,796.122681 
	C651.164368,807.697632 656.088684,819.172119 661.061829,831.037964 
z"/>
<path fill="#000000" opacity="1.000000" stroke="none" 
	d="
M435.758789,180.997406 
	C434.245697,173.084122 432.664337,165.611786 431.394257,158.086929 
	C430.915009,155.247528 428.347900,151.556076 434.038330,150.365540 
	C440.194946,149.077454 440.234039,148.862549 442.512665,155.639175 
	C447.006042,149.524490 452.786743,145.952087 460.073242,145.043045 
	C461.678040,146.726440 461.785461,148.772766 462.249146,150.663345 
	C462.982269,153.652496 462.386688,155.444931 458.855286,156.433289 
	C448.897888,159.220184 444.764069,166.272888 446.638550,176.521255 
	C448.132446,184.688675 449.528595,192.886871 451.437134,200.960541 
	C452.532837,205.595901 450.019012,206.327469 446.620056,206.982010 
	C443.376831,207.606598 440.946594,207.779449 440.245148,203.361435 
	C439.075958,195.997894 437.322083,188.727203 435.758789,180.997406 
z"/>
<path fill="#000000" opacity="1.000000" stroke="none" 
	d="
M577.205322,828.130615 
	C576.609253,827.723022 576.312134,827.545532 576.105103,827.293884 
	C572.873474,823.365051 572.528381,819.108521 575.374756,816.070496 
	C578.271729,812.978455 581.765991,812.516663 585.255127,814.857605 
	C588.748230,817.201172 589.532715,820.701233 587.966003,824.504822 
	C586.338928,828.455261 582.492981,829.748413 577.205322,828.130615 
z"/>
<path fill="#000000" opacity="1.000000" stroke="none" 
	d="
M336.247864,247.775513 
	C332.927917,242.280106 333.936157,237.462341 338.518341,235.351532 
	C342.492950,233.520630 346.750763,235.440277 348.620056,239.877670 
	C350.048645,243.268951 349.160278,246.160873 346.438385,248.352463 
	C343.157349,250.994293 339.742371,250.965302 336.247864,247.775513 
z"/>
</svg>